<svg width="35" height="35" viewBox="0 0 35 35" fill="none" xmlns="http://www.w3.org/2000/svg">
<path d="M24.3662 30.2238C24.1186 30.2247 23.8743 30.1721 23.6539 30.0704L15.757 26.3475L7.86013 30.0704C7.6037 30.1918 7.31459 30.246 7.02565 30.2269C6.73672 30.2077 6.45955 30.1159 6.22567 29.9619C5.99178 29.808 5.81056 29.598 5.70259 29.3559C5.59463 29.1138 5.56425 28.8493 5.61493 28.5924L7.16334 20.7423L0.783884 15.1649C0.584847 14.9861 0.443653 14.7618 0.375455 14.5161C0.307257 14.2705 0.314629 14.0127 0.396781 13.7706C0.486526 13.5228 0.651612 13.3026 0.873305 13.135C1.095 12.9674 1.36442 12.8591 1.65099 12.8224L10.4769 11.6651L14.3635 4.51215C14.4902 4.27641 14.6882 4.07759 14.9347 3.93848C15.1811 3.79937 15.4661 3.72559 15.757 3.72559C16.0479 3.72559 16.3329 3.79937 16.5794 3.93848C16.8258 4.07759 17.0238 4.27641 17.1506 4.51215L21.0836 11.6512L29.9095 12.8085C30.1961 12.8452 30.4655 12.9534 30.6872 13.121C30.9089 13.2886 31.074 13.5088 31.1637 13.7566C31.2459 13.9988 31.2533 14.2565 31.1851 14.5022C31.1169 14.7478 30.9757 14.9721 30.7766 15.151L24.3972 20.7283L25.9456 28.5785C26.0009 28.8399 25.9719 29.1101 25.8622 29.3571C25.7524 29.6042 25.5664 29.8179 25.3262 29.9728C25.0458 30.1498 24.7082 30.238 24.3662 30.2238Z" fill="#FCC419"/>
</svg>
